<svg id="Layer_1" data-name="Layer 1" xmlns="http://www.w3.org/2000/svg" viewBox="0 0 552.11 552.11"><defs><style>.cls-1,.cls-2,.cls-3{fill:none;stroke-miterlimit:10;}.cls-1{stroke:#aa7f2b;stroke-width:16.82px;}.cls-2{stroke:#609;stroke-width:8.41px;}.cls-3{stroke:#460d68;stroke-width:5.26px;}</style></defs><title>customer service</title><circle class="cls-1" cx="276.06" cy="276.06" r="267.65"/><path class="cls-2" d="M1004.21,648.69C1000.28,574,933.11,543,933.11,543c-16.05-7.5-45.14-22.19-64.22-31.9,24.44-26.74,31.66-70.33,32.79-76.54,5.1-28.06,2.53-62.81,2.53-62.81-4.66-67.55-72.87-68.61-80-68.54H823c-6.47-.08-75.43.6-80.12,68.54,0,0-2.57,34.74,2.53,62.81.33,1.81,1.2,6.85,2.84,13.66,12.84,16.87,32.68,25.14,49,29.19a11.33,11.33,0,0,1,7.93-3.23h29.67a11.37,11.37,0,0,1,0,22.74H805.14a11.36,11.36,0,0,1-10.44-6.86c-12.15-2.95-26.2-8.09-38.74-16.94,5,13,12.13,26.93,22.24,38C759.13,520.85,730,535.53,714,543c0,0-67.16,30.92-71.1,105.66,0,0-1.17,12.42,22.39,17.13,0,0,72.15,16.47,158.28,16.47s158.3-16.47,158.3-16.47C1005.39,661.11,1004.21,648.69,1004.21,648.69Z" transform="translate(-546.64 -220.61)"/><path class="cls-3" d="M719.79,458.82H727V374.63c0-.21.07-.41.07-.63V361.57c0-22.16,6.84-40.13,20.33-53.4,27.91-27.46,75.58-27.08,76.39-27,.57,0,47.84-.72,75.87,26.72,13.59,13.29,20.48,31.34,20.48,53.65v13.15c0,.13,0,.24,0,.37v83.73h7.17a31.94,31.94,0,0,0,31.94-31.93v-30.7a31.93,31.93,0,0,0-22.07-30.36v-4.26c0-27.07-8.62-49.22-25.6-65.85-33.11-32.4-86-31.56-87.85-31.59-2.22,0-55.16-.67-88.25,31.8C718.54,312.54,710,334.62,710,361.57v4.24a31.94,31.94,0,0,0-22.1,30.38v30.69A31.94,31.94,0,0,0,719.79,458.82Z" transform="translate(-546.64 -220.61)"/></svg>