<svg id="Layer_1" data-name="Layer 1" xmlns="http://www.w3.org/2000/svg" viewBox="0 0 556.24 556.24"><defs><style>.cls-1{fill:#3d1a52;}.cls-2{fill:#b78e2d;}.cls-3{fill:none;stroke:#aa7f2b;stroke-miterlimit:10;stroke-width:16.94px;}</style></defs><title>branding</title><path class="cls-1" d="M1216.5,480.93q36.78-28.86,36.78-70.93,0-41.25-29.67-68.07-26.62-24-75-24H1042.75V327a67.86,67.86,0,0,1,5.89,4.12c16.36,12.87,24.65,32.23,24.65,57.52,0,22.2-8.66,41.28-25.78,56.84,26.29,14.42,39.6,38,39.6,70.17,0,27-9.51,48.89-28.26,65a87.07,87.07,0,0,1-16.1,10.78v3.86h82.5V392.53h14.64q30.08,0,30.07,19.71,0,22.35-26,22.35h-6.5v71.33l40,89.42h86.57Z" transform="translate(-783.26 -183.87)"/><path class="cls-2" d="M872.44,595.54H955v-203h15.24q20.52,0,20.53,14.43,0,15.66-22.76,15.65v74h15.85q20.73,0,20.72,13.41,0,7.93-5.08,11.08T982,524.21H968v71.33H983.6q24.79,0,39.43-4.27a75.2,75.2,0,0,0,27.43-15q26.22-22.56,26.22-60.56,0-49.57-44.51-68.89,30.69-23.16,30.69-58.12,0-70.52-89.62-70.52H872.44Z" transform="translate(-783.26 -183.87)"/><circle class="cls-3" cx="278.12" cy="278.12" r="269.65"/></svg>