<svg id="Layer_1" data-name="Layer 1" xmlns="http://www.w3.org/2000/svg" viewBox="0 0 678.73 678.73"><defs><style>.cls-1{fill:#b78e2d;}.cls-2{fill:#7f6022;}.cls-3{fill:none;stroke:#b78e2d;stroke-width:21.85px;}.cls-3,.cls-4{stroke-miterlimit:10;}.cls-4{fill:#f6f5f7;stroke:#542a72;stroke-width:16.99px;}</style></defs><title>mobile development</title><path class="cls-1" d="M1047.17,300.43H851.26A34.3,34.3,0,0,0,817,334.69v398.1a34.3,34.3,0,0,0,34.25,34.26h195.9a34.31,34.31,0,0,0,34.27-34.26V334.69A34.31,34.31,0,0,0,1047.17,300.43ZM832.56,362.64h233.31V658.17H832.56ZM851.26,316h195.9a18.73,18.73,0,0,1,18.71,18.71v12.4H832.56v-12.4A18.72,18.72,0,0,1,851.26,316ZM1047.17,751.5H851.26a18.72,18.72,0,0,1-18.7-18.71V673.73h233.31v59.06A18.72,18.72,0,0,1,1047.17,751.5Z" transform="translate(-667.66 -196.66)"/><path class="cls-2" d="M949.22,681.51a31.11,31.11,0,1,0,31.1,31.1A31.14,31.14,0,0,0,949.22,681.51Zm0,46.66a15.56,15.56,0,1,1,15.55-15.56A15.58,15.58,0,0,1,949.22,728.17Z" transform="translate(-667.66 -196.66)"/><path class="cls-2" d="M918.11,339.31h31.11a7.78,7.78,0,0,0,0-15.55H918.11a7.78,7.78,0,1,0,0,15.55Z" transform="translate(-667.66 -196.66)"/><path class="cls-2" d="M972.55,339.31h7.77a7.78,7.78,0,1,0,0-15.55h-7.77a7.78,7.78,0,1,0,0,15.55Z" transform="translate(-667.66 -196.66)"/><circle class="cls-3" cx="339.37" cy="339.37" r="328.44"/><path class="cls-4" d="M1277.57,514.47l-26.51-7.14a137.31,137.31,0,0,0-16.66-40.45l13.6-23.79a7.24,7.24,0,0,0-1.36-8.84l-21.76-21.76a7.81,7.81,0,0,0-8.84-1.36l-23.79,13.6a121.23,121.23,0,0,0-40.46-16.66l-7.14-26.51a7.23,7.23,0,0,0-7.13-5.44h-30.94a7.35,7.35,0,0,0-7.14,5.44l-7.13,26.51a137.26,137.26,0,0,0-40.46,16.66l-23.79-13.6a7.22,7.22,0,0,0-8.84,1.36l-21.76,21.76a7.81,7.81,0,0,0-1.36,8.84l13.6,23.79A121.26,121.26,0,0,0,993,507.33l-26.51,7.14a7.25,7.25,0,0,0-5.44,7.14v30.94a7.33,7.33,0,0,0,5.44,7.13L993,566.82a137.26,137.26,0,0,0,16.66,40.46l-13.6,23.79a7.22,7.22,0,0,0,1.36,8.84l21.76,21.76a7.81,7.81,0,0,0,8.84,1.36l23.79-13.6a121.23,121.23,0,0,0,40.46,16.66l7.13,26.51a7.25,7.25,0,0,0,7.14,5.44h30.94a7.34,7.34,0,0,0,7.14-5.44l7.14-26.51a137.31,137.31,0,0,0,40.45-16.66L1216,663a7.24,7.24,0,0,0,8.84-1.36l21.76-21.76a7.81,7.81,0,0,0,1.36-8.84l-13.6-23.79a121.23,121.23,0,0,0,16.66-40.46l26.51-7.14a7.23,7.23,0,0,0,5.44-7.13V522A7.27,7.27,0,0,0,1277.57,514.47Zm-155.69,87a64.25,64.25,0,1,1,64.25-64.24A64.2,64.2,0,0,1,1121.88,601.49Z" transform="translate(-667.66 -196.66)"/></svg>