<svg id="Layer_1" data-name="Layer 1" xmlns="http://www.w3.org/2000/svg" viewBox="0 0 666.76 666.76"><defs><style>.cls-1,.cls-10,.cls-11,.cls-2,.cls-8,.cls-9{fill:none;}.cls-1{stroke:#72551a;stroke-width:12.07px;}.cls-1,.cls-10,.cls-11,.cls-2,.cls-9{stroke-miterlimit:10;}.cls-2{stroke:#b78e2d;stroke-width:21.73px;}.cls-3{fill:#240f33;}.cls-4{fill:#542675;}.cls-5{fill:#6d32a0;}.cls-6{fill:#3d1a52;}.cls-7{fill:#b78e2d;}.cls-9{stroke:#240f33;}.cls-10,.cls-11,.cls-9{stroke-width:2.41px;}.cls-10{stroke:#542675;}.cls-11{stroke:#6d32a0;}</style></defs><title>web design</title><line class="cls-1" x1="270.69" y1="322.35" x2="113.65" y2="322.52"/><line class="cls-1" x1="547.65" y1="322.03" x2="393.45" y2="322.2"/><circle class="cls-2" cx="333.38" cy="333.38" r="322.52"/><rect class="cls-1" x="113.93" y="149.55" width="433.07" height="369.44" rx="26.52"/><line class="cls-1" x1="547.65" y1="210.21" x2="114.05" y2="210.21"/><circle class="cls-3" cx="154.09" cy="178.59" r="10.88"/><circle class="cls-4" cx="190.38" cy="178.59" r="10.88"/><circle class="cls-5" cx="225.46" cy="177.99" r="10.88"/><path class="cls-6" d="M801.54,410.1H993.85a9.68,9.68,0,0,1,9.67,9.68h0a9.67,9.67,0,0,1-9.67,9.67H801.54a9.67,9.67,0,0,1-9.68-9.67h0A9.68,9.68,0,0,1,801.54,410.1Z" transform="translate(-519.97 -241.19)"/><path class="cls-7" d="M851.82,609.42a69.89,69.89,0,0,1,0-139.77v0h0a69.89,69.89,0,0,1,0,139.77Zm-42-24.3a61.57,61.57,0,0,0,84.75-.82,54.65,54.65,0,0,0,.76-8.93c0-13-5.41-23.76-16.06-32a59.25,59.25,0,0,0-18.61-9.48,29.91,29.91,0,0,1-15.6-.16l-.39.08c-.48.13-1.34.35-2.39.66a57.32,57.32,0,0,0-8.3,3.24c-5.87,2.83-14,8-19.23,16.78a40.91,40.91,0,0,0-5.63,21.56A62,62,0,0,0,809.86,585.12Zm28.92-106.28a62,62,0,0,0-37.53,96.46A48.89,48.89,0,0,1,808,550.44a50,50,0,0,1,14.85-15.39A63.27,63.27,0,0,1,835,528.69a29.9,29.9,0,0,1,3.79-49.85Zm34,50.17,9.43,6.66c9.39,6.63,20.54,18.6,21.1,38.24a62,62,0,0,0-33.53-93.79,29.88,29.88,0,0,1,.94,49.15c.9.4,1.8.82,2.68,1.25Zm-36-9.44,1,1a21.39,21.39,0,1,0-1-1Z" transform="translate(-519.97 -241.19)"/><path class="cls-8" d="M898.77,575.39a57.83,57.83,0,0,1-1,10.5,65.28,65.28,0,0,1-91,.84,64.47,64.47,0,0,1-.92-10.66,44.36,44.36,0,0,1,6.11-23.36c5.5-9.13,13.75-14.75,20.65-18.08a60.73,60.73,0,0,1,8.8-3.43c1.12-.33,2-.57,2.65-.72l.71-.16.59-.09a26.63,26.63,0,0,0,15.39.13h.09a62.94,62.94,0,0,1,20.59,10.3C890.36,547.64,898.76,558.53,898.77,575.39Z" transform="translate(-519.97 -241.19)"/><path class="cls-8" d="M878.55,505a25.34,25.34,0,0,1-17.86,24.21h0A25.35,25.35,0,1,1,878.55,505Z" transform="translate(-519.97 -241.19)"/><rect class="cls-5" x="412.2" y="396.93" width="95.55" height="31.44"/><rect class="cls-4" x="283.38" y="396.93" width="95.55" height="31.44"/><rect class="cls-3" x="158.2" y="396.93" width="95.55" height="31.44"/><rect class="cls-9" x="158.2" y="447.1" width="95.55" height="12.7"/><rect class="cls-9" x="158.2" y="471.9" width="95.55" height="12.7"/><rect class="cls-10" x="283.99" y="447.1" width="95.55" height="12.7"/><rect class="cls-10" x="283.99" y="471.9" width="95.55" height="12.7"/><rect class="cls-11" x="410.99" y="447.1" width="95.55" height="12.7"/><rect class="cls-11" x="410.99" y="471.9" width="95.55" height="12.7"/></svg>