<svg id="Layer_1" data-name="Layer 1" xmlns="http://www.w3.org/2000/svg" viewBox="0 0 1104.46 311.17"><defs><style>.cls-1{fill:#3d1a52;}.cls-2{fill:#1e102b;}.cls-3{fill:#311744;}.cls-4{fill:#150b1e;}.cls-5{fill:#fff;}.cls-6{fill:#b78e2d;}.cls-7{fill:#fefdff;}.cls-8{fill:#595859;}</style></defs><title>soon project</title><path class="cls-1" d="M408.87,67.35a129.44,129.44,0,0,0-35.81,24.82,126,126,0,0,0-25.74,35.07q-9.49,19.32-9.5,38.64,0,24.5,13.33,37.82,10,9.84,27.07,15.83a103.16,103.16,0,0,0,34.4,6q17.82,0,37.57-8.58a112.49,112.49,0,0,0,33.73-22.07q10.83-10.65,17.49-27.9a95.86,95.86,0,0,0,6.67-34.9A71.39,71.39,0,0,0,505.33,112a55.13,55.13,0,0,0-7.91-16.66,38.59,38.59,0,0,0-11.91-11.16,27.92,27.92,0,0,0-14.25-3.91q-6.5,0-16,3.5a80.34,80.34,0,0,0-17.16,8.66q-6.83,4.83-6.83,7.16c0,1.11,1.61,3,4.83,5.5A55.79,55.79,0,0,1,453.34,126a61,61,0,0,1,5.92,26.57q0,17.33-9.5,30.32t-22.15,13q-13.67,0-22.16-11.08T397,155.56a96.06,96.06,0,0,1,5-31.32,93.12,93.12,0,0,1,14.16-26.66A72.53,72.53,0,0,1,436.9,78.92c7.78-4.55,19.18-8.22,28.18-8.78,7.43-.33,44.61,2.39,67.27,7.16,3.8.8-53.12-17.57-69.66-17.89C438.16,58.93,421.92,61.29,408.87,67.35ZM44.62,186.17q1.23-9.75,9.12-20.52c1.75-2.35,2.7-4.07,2.83-5.18q.41-3.32-7-4.24-9.91-1.24-21,3.25a56,56,0,0,0-19.15,12.8q-8.08,8.31-9.2,17.24-1.58,12.55,8,21.15t27.93,10.88a100.55,100.55,0,0,0,35.44-1.45q16.43-3.82,34-15.24,16.43-10.53,25-21.31t10-22.18q1.33-10.74-4.09-18.31A47.43,47.43,0,0,0,131,137.5q-8-5.88-28.34-13.63a144.55,144.55,0,0,1-18.08-7.81q-5.89-3.25-8.18-7.15t-1.55-9.84a47.81,47.81,0,0,1,6-17.35,54.7,54.7,0,0,1,11.82-15.3q2.9-3,11.7-7.59a34.72,34.72,0,0,1,3.82,20.45q-1.32,10.59-6.74,24.35a26.55,26.55,0,0,0-2.17,6.61q-.28,2.31,2.85,4.72a15.69,15.69,0,0,0,7.77,3q8.1,1,18-4.55a56.51,56.51,0,0,0,17-14.91q7.22-9.33,8.4-18.76a31.59,31.59,0,0,0-3.24-18.45,40.23,40.23,0,0,0-13.07-15,41.6,41.6,0,0,0-19.21-7.44Q96,36.12,73,45.58A110.39,110.39,0,0,0,33.81,72.33Q17.63,89.61,15.25,108.62a25.23,25.23,0,0,0,5.12,19.12q6.75,10.42,32.09,21.31,17.22,7.19,21.71,13,4.26,4.89,3.35,12.17-1.32,10.51-10.47,18.52t-19,7.29A21,21,0,0,1,44.62,186.17Z" transform="translate(0 0)"/><path class="cls-1" d="M1032.89,236.58l-8.58,45.8,80.15-110.21L962.76,196.5l55.82,15.74c-160.53,84.19-218.52-4.93-215.58-5.32,28.59-10.3,52.79-24.31,75.67-41.47,36.6-28.59,99.5-88.06,72-139.53C928.94-13,860.32-2.67,832.87,21.35,791.7,55.66,778,114,775.69,165.45v24c-22.87,5.72-49.44,4.52-71.43-2.67-5.93-1.94-13.36-5.09-18.6-9.7-3.42-3-6.93-11.07-7.71-15.29a175.38,175.38,0,0,1-1.67-27,270,270,0,0,1,2-31.65q1.34-12.66,1.34-19.16,0-15.66-4.83-22t-16.6-6.24a30.8,30.8,0,0,0-14.39,3.67q-7.08,3.68-16,11.93T603.67,96.48l-10,11.69-.67-.67q6.9-30.77,6.89-47.26,0-22.5-17.32-22.49a24.71,24.71,0,0,0-18.16,7.49q-11,11.5-18.66,32-5,12.33-9.25,26t-7.35,26.5c-2.06,8.61-12.4,38.86-14.41,46.24-2.15,7.87-5.38,16-5.38,21.21q0,12.66,6.66,20.66a21.5,21.5,0,0,0,17.32,8q7.83,0,14-6.16,4.15-5,9.16-11.66c8.66-11.44,32.26-48.32,44.7-62.54,2.56-2.77,5.3-5.72,8.25-8.83s6.8-7.33,11.58-12.66l.66.67c-1.33,8.77-.71,18.16-.71,24.6,0,9.67,5,27.43,8.11,35,7.63,18.61,24,30.11,34.67,33.88,46.8,16.53,88.62,7.06,116-2.67C870.71,334.58,1030.46,228.08,1032.89,236.58ZM875.24,28.21c17.15-4.57,50.32-2.29,56,17.16,8,22.87-20.59,54.89-34.31,69.76a233.42,233.42,0,0,1-97.21,67.47C798.61,116.27,815.77,44.22,875.24,28.21Z" transform="translate(0 0)"/><path class="cls-1" d="M229.47,67.35a129.44,129.44,0,0,0-35.81,24.82,126,126,0,0,0-25.74,35.07q-9.49,19.32-9.5,38.64,0,24.5,13.33,37.82,10,9.84,27.07,15.83a103.16,103.16,0,0,0,34.4,6q17.82,0,37.57-8.58a112.49,112.49,0,0,0,33.73-22.07Q315.35,184.23,322,167a95.86,95.86,0,0,0,6.67-34.9A71.39,71.39,0,0,0,325.93,112,55.24,55.24,0,0,0,318,95.33a38.59,38.59,0,0,0-11.91-11.16,27.92,27.92,0,0,0-14.25-3.91q-6.49,0-16,3.5a80.34,80.34,0,0,0-17.16,8.66q-6.83,4.83-6.83,7.16c0,1.11,1.61,3,4.83,5.5A55.75,55.75,0,0,1,274,126a60.9,60.9,0,0,1,5.92,26.57q0,17.33-9.5,30.32t-22.15,13q-13.67,0-22.16-11.08t-8.5-29.23a95.87,95.87,0,0,1,5.08-31.32,93.12,93.12,0,0,1,14.16-26.66A72.27,72.27,0,0,1,257.6,78.93c7.77-4.55,19.17-8.22,28.17-8.78,7.44-.33,44.61,2.39,67.27,7.16,3.8.8-53.12-17.57-69.66-17.89C258.76,58.93,242.52,61.29,229.47,67.35Z" transform="translate(0 0)"/><path class="cls-2" d="M435.31,118.08a12.6,12.6,0,0,0-17.76-1.48,12.8,12.8,0,0,0-2.41,2.73,49.49,49.49,0,0,0-8.23,24.41c-1.28,22.9,41.13,17.77,40.39-1.28C447.05,135.83,445.58,130.24,435.31,118.08Z" transform="translate(0 0)"/><path class="cls-2" d="M255.91,118.08a12.6,12.6,0,0,0-17.76-1.48,12.8,12.8,0,0,0-2.41,2.73,49.49,49.49,0,0,0-8.23,24.41c-1.27,22.9,41.13,17.77,40.39-1.28C267.65,135.83,266.18,130.24,255.91,118.08Z" transform="translate(0 0)"/><path class="cls-1" d="M213.27,258.59c20.3,22.6,105,103.66,198.29,3.86a3.16,3.16,0,0,0-2.26-5.32l-193.62-3.82a3.17,3.17,0,0,0-3.23,3.09A3.21,3.21,0,0,0,213.27,258.59Z" transform="translate(0 0)"/><path class="cls-1" d="M414.94,247.14a10.22,10.22,0,0,1,5.33,1,10,10,0,0,1,4.33,3.78,7.61,7.61,0,0,1,1,3,7,7,0,0,1-.37,3.14,7.47,7.47,0,0,1-3.81,4.1,23.73,23.73,0,0,0,.73-4.74,6.76,6.76,0,0,0-1-3.47,17.83,17.83,0,0,0-2.68-3.26C417.4,249.61,416.2,248.5,414.94,247.14Z" transform="translate(0 0)"/><path class="cls-3" d="M344.85,306.35s-51.74-46.16-57.76.23C287.09,306.58,310.06,317.06,344.85,306.35Z" transform="translate(0 0)"/><path class="cls-4" d="M303.65,290.67a22.11,22.11,0,0,1,3.63,3.34,29.19,29.19,0,0,1,3,4,24,24,0,0,1,2.19,4.46,13.43,13.43,0,0,1,.83,4.9,41.33,41.33,0,0,0-2-4.39c-.75-1.4-1.56-2.77-2.4-4.11s-1.73-2.69-2.6-4S304.51,292.09,303.65,290.67Z" transform="translate(0 0)"/><path class="cls-5" d="M408.87,67.35a129.44,129.44,0,0,0-35.81,24.82,126,126,0,0,0-25.74,35.07q-9.49,19.32-9.5,38.64,0,24.5,13.33,37.82,10,9.84,27.07,15.83a103.16,103.16,0,0,0,34.4,6q17.82,0,37.57-8.58a112.49,112.49,0,0,0,33.73-22.07q10.83-10.65,17.49-27.9a95.86,95.86,0,0,0,6.67-34.9A71.39,71.39,0,0,0,505.33,112a55.13,55.13,0,0,0-7.91-16.66,38.59,38.59,0,0,0-11.91-11.16,27.92,27.92,0,0,0-14.25-3.91q-6.5,0-16,3.5a80.34,80.34,0,0,0-17.16,8.66q-6.83,4.83-6.83,7.16c0,1.11,1.61,3,4.83,5.5A55.79,55.79,0,0,1,453.34,126a61,61,0,0,1,5.92,26.57q0,17.33-9.5,30.32t-22.15,13q-13.67,0-22.16-11.08T397,155.56a96.06,96.06,0,0,1,5-31.32,93.12,93.12,0,0,1,14.16-26.66A72.53,72.53,0,0,1,436.9,78.92c7.78-4.55,19.18-8.22,28.18-8.78,7.43-.33,44.61,2.39,67.27,7.16,3.8.8-53.12-17.57-69.66-17.89C438.16,58.93,421.92,61.29,408.87,67.35ZM44.62,186.17q1.23-9.75,9.12-20.52c1.75-2.35,2.7-4.07,2.83-5.18q.41-3.32-7-4.24-9.91-1.24-21,3.25a56,56,0,0,0-19.15,12.8q-8.08,8.31-9.2,17.24-1.58,12.55,8,21.15t27.93,10.88a100.55,100.55,0,0,0,35.44-1.45q16.43-3.82,34-15.24,16.43-10.53,25-21.31t10-22.18q1.33-10.74-4.09-18.31A47.43,47.43,0,0,0,131,137.5q-8-5.88-28.34-13.63a144.55,144.55,0,0,1-18.08-7.81q-5.89-3.25-8.18-7.15t-1.55-9.84a47.81,47.81,0,0,1,6-17.35,54.7,54.7,0,0,1,11.82-15.3q2.9-3,11.7-7.59a34.72,34.72,0,0,1,3.82,20.45q-1.32,10.59-6.74,24.35a26.55,26.55,0,0,0-2.17,6.61q-.28,2.31,2.85,4.72a15.69,15.69,0,0,0,7.77,3q8.1,1,18-4.55a56.51,56.51,0,0,0,17-14.91q7.22-9.33,8.4-18.76a31.59,31.59,0,0,0-3.24-18.45,40.23,40.23,0,0,0-13.07-15,41.6,41.6,0,0,0-19.21-7.44Q96,36.12,73,45.58A110.39,110.39,0,0,0,33.81,72.33Q17.63,89.61,15.25,108.62a25.23,25.23,0,0,0,5.12,19.12q6.75,10.42,32.09,21.31,17.22,7.19,21.71,13,4.26,4.89,3.35,12.17-1.32,10.51-10.47,18.52t-19,7.29A21,21,0,0,1,44.62,186.17Z" transform="translate(0 0)"/><path class="cls-5" d="M1032.89,236.58l-8.58,45.8,80.15-110.21L962.76,196.5l55.82,15.74c-160.53,84.19-218.52-4.93-215.58-5.32,28.59-10.3,52.79-24.31,75.67-41.47,36.6-28.59,99.5-88.06,72-139.53C928.94-13,860.32-2.67,832.87,21.35,791.7,55.66,778,114,775.69,165.45v24c-22.87,5.72-49.44,4.52-71.43-2.67-5.93-1.94-13.36-5.09-18.6-9.7-3.42-3-6.93-11.07-7.71-15.29a175.38,175.38,0,0,1-1.67-27,270,270,0,0,1,2-31.65q1.34-12.66,1.34-19.16,0-15.66-4.83-22t-16.6-6.24a30.8,30.8,0,0,0-14.39,3.67q-7.08,3.68-16,11.93T603.67,96.48l-10,11.69-.67-.67q6.9-30.77,6.89-47.26,0-22.5-17.32-22.49a24.71,24.71,0,0,0-18.16,7.49q-11,11.5-18.66,32-5,12.33-9.25,26t-7.35,26.5c-2.06,8.61-12.4,38.86-14.41,46.24-2.15,7.87-5.38,16-5.38,21.21q0,12.66,6.66,20.66a21.5,21.5,0,0,0,17.32,8q7.83,0,14-6.16,4.15-5,9.16-11.66c8.66-11.44,32.26-48.32,44.7-62.54,2.56-2.77,5.3-5.72,8.25-8.83s6.8-7.33,11.58-12.66l.66.67c-1.33,8.77-.71,18.16-.71,24.6,0,9.67,5,27.43,8.11,35,7.63,18.61,24,30.11,34.67,33.88,46.8,16.53,88.62,7.06,116-2.67C870.71,334.58,1030.46,228.08,1032.89,236.58ZM875.24,28.21c17.15-4.57,50.32-2.29,56,17.16,8,22.87-20.59,54.89-34.31,69.76a233.42,233.42,0,0,1-97.21,67.47C798.61,116.27,815.77,44.22,875.24,28.21Z" transform="translate(0 0)"/><path class="cls-5" d="M229.47,67.35a129.44,129.44,0,0,0-35.81,24.82,126,126,0,0,0-25.74,35.07q-9.49,19.32-9.5,38.64,0,24.5,13.33,37.82,10,9.84,27.07,15.83a103.16,103.16,0,0,0,34.4,6q17.82,0,37.57-8.58a112.49,112.49,0,0,0,33.73-22.07Q315.35,184.23,322,167a95.86,95.86,0,0,0,6.67-34.9A71.39,71.39,0,0,0,325.93,112,55.24,55.24,0,0,0,318,95.33a38.59,38.59,0,0,0-11.91-11.16,27.92,27.92,0,0,0-14.25-3.91q-6.49,0-16,3.5a80.34,80.34,0,0,0-17.16,8.66q-6.83,4.83-6.83,7.16c0,1.11,1.61,3,4.83,5.5A55.75,55.75,0,0,1,274,126a60.9,60.9,0,0,1,5.92,26.57q0,17.33-9.5,30.32t-22.15,13q-13.67,0-22.16-11.08t-8.5-29.23a95.87,95.87,0,0,1,5.08-31.32,93.12,93.12,0,0,1,14.16-26.66A72.27,72.27,0,0,1,257.6,78.93c7.77-4.55,19.17-8.22,28.17-8.78,7.44-.33,44.61,2.39,67.27,7.16,3.8.8-53.12-17.57-69.66-17.89C258.76,58.93,242.52,61.29,229.47,67.35Z" transform="translate(0 0)"/><path class="cls-6" d="M435.31,118.08a12.6,12.6,0,0,0-17.76-1.48,12.8,12.8,0,0,0-2.41,2.73,49.49,49.49,0,0,0-8.23,24.41c-1.28,22.9,41.13,17.77,40.39-1.28C447.05,135.83,445.58,130.24,435.31,118.08Z" transform="translate(0 0)"/><path class="cls-6" d="M255.91,118.08a12.6,12.6,0,0,0-17.76-1.48,12.8,12.8,0,0,0-2.41,2.73,49.49,49.49,0,0,0-8.23,24.41c-1.27,22.9,41.13,17.77,40.39-1.28C267.65,135.83,266.18,130.24,255.91,118.08Z" transform="translate(0 0)"/><path class="cls-5" d="M213.27,258.59c20.3,22.6,105,103.66,198.29,3.86a3.16,3.16,0,0,0-2.26-5.32l-193.62-3.82a3.17,3.17,0,0,0-3.23,3.09A3.21,3.21,0,0,0,213.27,258.59Z" transform="translate(0 0)"/><path class="cls-7" d="M414.94,247.14a10.22,10.22,0,0,1,5.33,1,10,10,0,0,1,4.33,3.78,7.61,7.61,0,0,1,1,3,7,7,0,0,1-.37,3.14,7.47,7.47,0,0,1-3.81,4.1,23.73,23.73,0,0,0,.73-4.74,6.76,6.76,0,0,0-1-3.47,17.83,17.83,0,0,0-2.68-3.26C417.4,249.61,416.2,248.5,414.94,247.14Z" transform="translate(0 0)"/><path class="cls-6" d="M344.85,306.35s-51.74-46.16-57.76.23C287.09,306.58,310.06,317.06,344.85,306.35Z" transform="translate(0 0)"/><path class="cls-8" d="M303.65,290.67a22.11,22.11,0,0,1,3.63,3.34,29.19,29.19,0,0,1,3,4,24,24,0,0,1,2.19,4.46,13.43,13.43,0,0,1,.83,4.9,41.33,41.33,0,0,0-2-4.39c-.75-1.4-1.56-2.77-2.4-4.11s-1.73-2.69-2.6-4S304.51,292.09,303.65,290.67Z" transform="translate(0 0)"/></svg>