<svg id="Layer_1" data-name="Layer 1" xmlns="http://www.w3.org/2000/svg" viewBox="0 0 428.04 120.3"><defs><style>.cls-1{fill:#fff;}.cls-2{fill:#b78e2d;}</style></defs><title>soon project 2</title><path class="cls-1" d="M704.83,488.65a52.52,52.52,0,0,1,4.29,37,45.48,45.48,0,0,1-1.43,4.66l-.78,2.32c-.27.77-.66,1.49-1,2.24l-1,2.24-.52,1.11-.62,1.07c-.85,1.4-1.65,2.85-2.55,4.23l-3,4c-1,1.28-2.21,2.47-3.32,3.71-.28.3-.56.62-.85.91l-.92.84-1.86,1.67a35.67,35.67,0,0,1-3.92,3.11,58.76,58.76,0,0,1-18,8.82,57.56,57.56,0,0,1-20.12,2.1l-2.54-.16c-.85-.12-1.68-.27-2.52-.41a40.21,40.21,0,0,1-5-1c-1.64-.47-3.3-.87-4.91-1.41l-4.76-1.85a61,61,0,0,1-17-11.32,58.4,58.4,0,0,1-12.12-16.39,60.34,60.34,0,0,1-5.79-19.48,56.24,56.24,0,0,1,1.15-20.2A60.25,60.25,0,0,1,603.7,478a56.92,56.92,0,0,1,31.07-23.22,52.31,52.31,0,0,1,19.05-2.09c.79.06,1.58.07,2.37.18l2.34.37,2.33.38a22.48,22.48,0,0,1,2.29.56l2.26.64a14.78,14.78,0,0,1,2.22.73q2.18.85,4.31,1.74c-1.54-.26-3.05-.53-4.55-.81a14.23,14.23,0,0,0-2.27-.28l-2.27-.18c-.76,0-1.5-.19-2.26-.16h-2.26l-2.24,0c-.75,0-1.5.14-2.24.21a58.16,58.16,0,0,0-8.75,1.49l-4.21,1.24-4.07,1.62A52.88,52.88,0,0,0,612,483a15.62,15.62,0,0,0-1,1.87l-.9,1.89a30.06,30.06,0,0,0-1.53,3.88l-.72,2c-.2.67-.35,1.35-.52,2l-.52,2-.26,1-.15,1a47.92,47.92,0,0,0-.21,16.42,50.4,50.4,0,0,0,5.06,15.52,46.93,46.93,0,0,0,9.78,13,49.41,49.41,0,0,0,29.2,13.45,49.57,49.57,0,0,0,16.41-1A52.74,52.74,0,0,0,682,549.76a51.72,51.72,0,0,0,12.74-11,57.1,57.1,0,0,0,8.63-14.86A55.19,55.19,0,0,0,707,506.65a53.4,53.4,0,0,0-.35-9A58.79,58.79,0,0,0,704.83,488.65Z" transform="translate(-509.97 -452.55)"/><path class="cls-2" d="M661.77,518.32c-4.4,6.2-12,8-15.83,4.79s-3.47-11,1.81-16.44c10.47-10.81,44.6-39.42,44.6-39.42S670.48,506.05,661.77,518.32Z" transform="translate(-509.97 -452.55)"/><path class="cls-1" d="M829.29,488.65a52.57,52.57,0,0,1,4.29,37,45.48,45.48,0,0,1-1.43,4.66l-.79,2.32c-.27.77-.65,1.49-1,2.24l-1,2.24-.52,1.11-.62,1.07c-.85,1.4-1.66,2.85-2.56,4.23l-2.94,4c-1.05,1.28-2.21,2.47-3.33,3.71-.28.3-.55.62-.85.91l-.92.84-1.85,1.67a35.79,35.79,0,0,1-3.93,3.11,58.71,58.71,0,0,1-18,8.82,57.59,57.59,0,0,1-20.12,2.1l-2.55-.16c-.84-.12-1.68-.27-2.52-.41a40.58,40.58,0,0,1-5-1c-1.63-.47-3.29-.87-4.9-1.41L754,563.83a61,61,0,0,1-17-11.32,58.43,58.43,0,0,1-12.13-16.39,60.84,60.84,0,0,1-5.79-19.48,56.24,56.24,0,0,1,1.16-20.2A60.25,60.25,0,0,1,728.16,478a56.89,56.89,0,0,1,31.06-23.22,52.39,52.39,0,0,1,19.06-2.09c.79.06,1.58.07,2.36.18l2.35.37,2.33.38a23.15,23.15,0,0,1,2.29.56l2.26.64a14.66,14.66,0,0,1,2.21.73c1.46.57,2.89,1.15,4.31,1.74-1.53-.26-3-.53-4.54-.81a14.37,14.37,0,0,0-2.27-.28l-2.27-.18c-.76,0-1.5-.19-2.26-.16h-2.26l-2.25,0c-.74,0-1.49.14-2.23.21a57.94,57.94,0,0,0-8.75,1.49l-4.22,1.24-4.06,1.62A52.79,52.79,0,0,0,736.42,483a14.33,14.33,0,0,0-1,1.87l-.89,1.89a30.11,30.11,0,0,0-1.54,3.88l-.71,2c-.21.67-.35,1.35-.53,2l-.51,2-.26,1-.16,1a48.17,48.17,0,0,0-.2,16.42,50.4,50.4,0,0,0,5.06,15.52,46.93,46.93,0,0,0,9.78,13,50.23,50.23,0,0,0,45.61,12.49,52.57,52.57,0,0,0,15.35-6.36,51.77,51.77,0,0,0,12.75-11,57.38,57.38,0,0,0,8.63-14.86,55.19,55.19,0,0,0,3.57-17.22,53.41,53.41,0,0,0-.36-9A58.75,58.75,0,0,0,829.29,488.65Z" transform="translate(-509.97 -452.55)"/><path class="cls-2" d="M786.22,518.32c-4.39,6.2-12,8-15.83,4.79s-3.47-11,1.82-16.44c10.47-10.81,44.6-39.42,44.6-39.42S794.93,506.05,786.22,518.32Z" transform="translate(-509.97 -452.55)"/><path class="cls-1" d="M531.53,491.13a19.2,19.2,0,0,1-1.4-1.89,14.66,14.66,0,0,1-2.17-8.09,16.3,16.3,0,0,1,1.13-6.08,13.24,13.24,0,0,1,3.39-5,16.73,16.73,0,0,1,5.73-3.34,24,24,0,0,1,8.17-1.26,30.54,30.54,0,0,1,9.09,1.26,44.4,44.4,0,0,1,7,2.78c2,1,3.64,1.93,5,2.74a7,7,0,0,0,3,1.21,1.65,1.65,0,0,0,1.08-.39,2.44,2.44,0,0,0,.74-1.21,9.71,9.71,0,0,0,.39-2,25.45,25.45,0,0,0,.13-2.78c0-1.1,0-2-.08-2.69a13.43,13.43,0,0,0-.26-1.78,4.76,4.76,0,0,0-.44-1.22,6.35,6.35,0,0,0-1.08-1.3,15.74,15.74,0,0,0-3.44-2.18,40.17,40.17,0,0,0-6-2.43,52.73,52.73,0,0,0-7.13-1.74,44.59,44.59,0,0,0-7.52-.65,45.48,45.48,0,0,0-13.6,2,31.74,31.74,0,0,0-10.86,5.69,26,26,0,0,0-7.13,9.25,27.63,27.63,0,0,0-1.39,3.76A104.26,104.26,0,0,0,531.53,491.13Z" transform="translate(-509.97 -452.55)"/><path class="cls-1" d="M520.74,504.88a39.36,39.36,0,0,0,8.09,6.34,100.6,100.6,0,0,0,9.3,4.92l9.34,4.34a51.35,51.35,0,0,1,8.13,4.69,22,22,0,0,1,5.73,6,14.8,14.8,0,0,1,2.18,8.17,19.16,19.16,0,0,1-1.57,7.91,15.58,15.58,0,0,1-1.32,2.33A85.19,85.19,0,0,0,578.29,530a23.36,23.36,0,0,0-1.36-4,28.38,28.38,0,0,0-5.82-8.51,39.25,39.25,0,0,0-8.21-6.26c-3.08-1.77-6.2-3.39-9.39-4.87s-6.32-2.94-9.39-4.39a52.3,52.3,0,0,1-7.54-4.32c-2.31-1.28-11.48-6.85-23-20.75a32.4,32.4,0,0,0-.86,7.6A28.6,28.6,0,0,0,515,496.32,29.67,29.67,0,0,0,520.74,504.88Z" transform="translate(-509.97 -452.55)"/><path class="cls-1" d="M554.46,557.1v0a23,23,0,0,1-3.94,1.69,28.84,28.84,0,0,1-8.91,1.3,38.48,38.48,0,0,1-11.34-1.52,55.64,55.64,0,0,1-8.39-3.26,56.23,56.23,0,0,1-5.69-3.21,7.06,7.06,0,0,0-3.43-1.48,2.4,2.4,0,0,0-1.22.3,2.29,2.29,0,0,0-.87,1.09,7.91,7.91,0,0,0-.52,2,23.31,23.31,0,0,0-.17,3.17,16.07,16.07,0,0,0,.47,4.31,6.51,6.51,0,0,0,1.48,2.65,17.46,17.46,0,0,0,3.57,2.52,41,41,0,0,0,6.34,2.86,57.34,57.34,0,0,0,8.6,2.35,53.76,53.76,0,0,0,10.48,1A50.57,50.57,0,0,0,556,570.67a34.78,34.78,0,0,0,12.16-6.47,30.25,30.25,0,0,0,8.09-10.47,32.66,32.66,0,0,0,2.91-14.08,33.69,33.69,0,0,0-.53-6.12C575.12,538.71,566.54,550.1,554.46,557.1Z" transform="translate(-509.97 -452.55)"/><path class="cls-1" d="M870.28,484.55h0l-.08-4.61c0-.48,0-1,0-1.45h0l-.28-16h-7.75a6.77,6.77,0,0,0-4.15,1.42c-1.27.95-1.9,2.55-1.9,4.78v100a2.08,2.08,0,0,0,.35,1.13,2.19,2.19,0,0,0,1.15.84,11.17,11.17,0,0,0,2.17.5,29.11,29.11,0,0,0,7,0,12.28,12.28,0,0,0,2.21-.5,2.21,2.21,0,0,0,1.2-.84,2.08,2.08,0,0,0,.35-1.13V503.29q0-6.19-.08-12.48C870.36,488.7,870.32,486.62,870.28,484.55Z" transform="translate(-509.97 -452.55)"/><path class="cls-1" d="M921.39,546.57l-1.56-3.1q-2-3.9-4-7.92t-4.21-8.17q-2.19-4.14-4.53-8.5l-25.43-47.59A37.74,37.74,0,0,0,879,467a11.91,11.91,0,0,0-2.6-2.68,8.77,8.77,0,0,0-3-1.38c-.36-.09-.76-.16-1.17-.22l.36,20.67q1.26,2.61,2.62,5.31,2.63,5.24,5.22,10l33.08,61.66a42.6,42.6,0,0,0,3.22,5.36,16.92,16.92,0,0,0,3,3.32,9.34,9.34,0,0,0,2,1.24Z" transform="translate(-509.97 -452.55)"/><path class="cls-1" d="M937.65,463.83a2.85,2.85,0,0,0-1.15-.88,7.33,7.33,0,0,0-2.21-.54,27.3,27.3,0,0,0-3.36-.17,28.77,28.77,0,0,0-3.58.17,7.75,7.75,0,0,0-2.21.54,2.84,2.84,0,0,0-1.2.88,1.89,1.89,0,0,0-.35,1.09v58.82q0,6.62,0,13.78c0,1.87,0,3.71.06,5.53h0l.11,6.39c0,.62,0,1.25,0,1.86h0l.35,19.65a16.37,16.37,0,0,0,2.73.21h4.77a8,8,0,0,0,2.25-.33,5.92,5.92,0,0,0,2-1.09,5.85,5.85,0,0,0,1.47-1.93A6.61,6.61,0,0,0,938,565v-100A1.89,1.89,0,0,0,937.65,463.83Z" transform="translate(-509.97 -452.55)"/></svg>